<svg width="107" height="23" viewBox="0 0 107 23" fill="none" xmlns="http://www.w3.org/2000/svg">
<g clip-path="url(#clip0_6568_33613)">
<path d="M56.6351 0.23999L55.3093 2.72868V0.23999H49.6804L48.3546 2.72868V0.23999H7.7279L0.0966797 22.24H46.4428L47.7686 19.7502V22.24H98.6125L106.244 0.23999H56.6351Z" fill="#FF0D40"/>
<path d="M72.8985 10.8339L73.7289 8.44135C71.8148 7.93682 70.394 9.06352 70.394 9.06352L68.6904 8.19022L65.8612 16.4662C65.7707 16.7298 65.9664 17.0036 66.2447 17.0036H68.3714L69.8001 12.5081C70.1316 11.4674 71.1146 10.7739 72.2062 10.8113L72.8974 10.835L72.8985 10.8339Z" fill="#F8F8F8"/>
<path d="M82.6432 8.15401H79.4169L76.064 11.5793L78.1545 5.44586H75.5527L71.7846 16.4651C71.6941 16.7287 71.8898 17.0024 72.168 17.0024H74.2065L75.5877 12.9696L77.7676 17.0024H80.6895L78.3015 12.5941L82.642 8.15401H82.6432Z" fill="#F8F8F8"/>
<path d="M18.988 7.8712L19.8183 5.47754H11.454L7.64294 16.464C7.55131 16.7275 7.74701 17.0024 8.02642 17.0024H15.8205L16.6509 14.6088H11.0027L11.7561 12.4357H17.4042L18.2346 10.042H12.5864L13.3398 7.86894H18.988V7.8712Z" fill="#F8F8F8"/>
<path d="M65.7123 10.5239C65.3808 9.85649 64.8808 9.335 64.2134 8.96056C63.5448 8.58613 62.7677 8.39948 61.8797 8.39948C60.9917 8.39948 60.201 8.58613 59.4747 8.96056C58.7473 9.335 58.1602 9.85649 57.7111 10.5239C57.262 11.1925 56.9996 11.9481 56.9249 12.7931C56.8503 13.6382 56.9781 14.3916 57.3096 15.0545C57.641 15.7173 58.1376 16.2354 58.8005 16.6099C59.4634 16.9843 60.2326 17.171 61.1093 17.171C61.986 17.171 62.8062 16.9843 63.5392 16.6099C64.2711 16.2354 64.8616 15.7173 65.3107 15.0545C65.7598 14.3916 66.0211 13.6382 66.0969 12.7931C66.1715 11.9481 66.0437 11.1925 65.7123 10.5239ZM61.8571 14.9413C60.7258 15.3124 59.6534 14.6483 59.4634 13.4572C59.2722 12.266 60.0358 11.0002 61.167 10.628C62.2982 10.2569 63.3706 10.921 63.5607 12.1121C63.7507 13.3033 62.9883 14.5692 61.8571 14.9413Z" fill="#F8F8F8"/>
<path d="M56.6984 5.47754L52.5118 13.3384V5.47754H49.7629L45.5615 13.3678V5.47754H42.8149V16.5974C42.8149 16.8214 42.9971 17.0036 43.221 17.0036H46.3738L50.1645 9.88704V17.0036H53.3296L59.4473 5.47867H56.6984V5.47754Z" fill="#F8F8F8"/>
<path d="M24.6262 8.4538L21.4825 14.4278V8.4538H19.1353V16.5963C19.1353 16.8203 19.3174 17.0024 19.5414 17.0024H22.5877L27.1251 8.4538H24.6262Z" fill="#F8F8F8"/>
<path d="M31.8952 14.4787C31.6588 14.6834 31.3873 14.8429 31.0898 14.9413C30.0355 15.2875 29.0333 14.7343 28.7471 13.6936H35.0446C35.1181 13.6936 35.1848 13.6438 35.2018 13.5714C35.264 13.3214 35.307 13.0612 35.3308 12.7931C35.4054 11.9492 35.2776 11.1925 34.9462 10.5239C34.6147 9.85649 34.1147 9.335 33.4473 8.96056C32.7787 8.58613 32.0016 8.39948 31.1136 8.39948C30.2256 8.39948 29.4348 8.58613 28.7086 8.96056C27.9812 9.335 27.3941 9.85649 26.945 10.5239C26.4959 11.1925 26.2335 11.9481 26.1588 12.7931C26.0842 13.6382 26.212 14.3916 26.5434 15.0545C26.8749 15.7173 27.3715 16.2354 28.0344 16.6099C28.6973 16.9843 29.4665 17.171 30.3432 17.171C31.2199 17.171 32.04 16.9843 32.7731 16.6099C33.307 16.3373 33.7652 15.9877 34.1486 15.5612L32.0751 14.4606C32.0163 14.43 31.945 14.4357 31.8952 14.4798V14.4787ZM30.3986 10.628C31.4903 10.2694 32.5253 10.8746 32.7697 11.9866C32.7912 12.0861 32.7131 12.18 32.6113 12.18C31.8183 12.18 28.8353 12.18 28.8353 12.18C29.1045 11.4662 29.6769 10.8644 30.3986 10.6269V10.628Z" fill="#F8F8F8"/>
<path d="M94.5366 9.06352L92.833 8.19022L90.0038 16.4662C89.9133 16.7298 90.109 17.0036 90.3873 17.0036H92.514L93.9178 12.8667C94.3273 11.6585 95.4585 10.8429 96.7346 10.8361H97.0411L97.8714 8.44135C95.9574 7.93682 94.5377 9.06352 94.5377 9.06352H94.5366Z" fill="#F8F8F8"/>
<path d="M86.9011 14.4787C86.6647 14.6834 86.3932 14.8429 86.0957 14.9413C85.0414 15.2875 84.0391 14.7343 83.7529 13.6936H90.0504C90.124 13.6936 90.1907 13.6438 90.2077 13.5714C90.2699 13.3214 90.3129 13.0612 90.3366 12.7931C90.4113 11.9492 90.2835 11.1925 89.952 10.5239C89.6206 9.85649 89.1206 9.335 88.4531 8.96056C87.7846 8.58613 87.0074 8.39948 86.1194 8.39948C85.2314 8.39948 84.4407 8.58613 83.7145 8.96056C82.9871 9.335 82.4 9.85649 81.9509 10.5239C81.5018 11.1925 81.2393 11.9481 81.1647 12.7931C81.09 13.6382 81.2178 14.3916 81.5493 15.0545C81.8807 15.7173 82.3773 16.2354 83.0402 16.6099C83.7031 16.9843 84.4724 17.171 85.3491 17.171C86.2258 17.171 87.0459 16.9843 87.7789 16.6099C88.3129 16.3373 88.771 15.9877 89.1545 15.5612L87.081 14.4606C87.0233 14.43 86.9509 14.4357 86.9011 14.4798V14.4787ZM85.4045 10.628C86.4961 10.2694 87.5312 10.8746 87.7744 11.9866C87.7959 12.0861 87.7178 12.1811 87.616 12.1811C86.8219 12.1811 83.8412 12.1811 83.8412 12.1811C84.1104 11.4673 84.6828 10.8655 85.4045 10.628Z" fill="#F8F8F8"/>
<path d="M39.5298 9.06352L37.8261 8.19022L34.997 16.4662C34.9065 16.7298 35.1022 17.0036 35.3804 17.0036H37.5071L38.911 12.8667C39.3205 11.6585 40.4517 10.8429 41.7277 10.8361H42.0614V8.31804C40.566 8.24338 39.5298 9.06465 39.5298 9.06465V9.06352Z" fill="#F8F8F8"/>
</g>
<defs>
<clipPath id="clip0_6568_33613">
<rect width="106.147" height="22" fill="white" transform="translate(0.0966797 0.23999)"/>
</clipPath>
</defs>
</svg>
